<svg width="128" height="128" viewBox="0 0 48 48" fill="none" xmlns="http://www.w3.org/2000/svg">
  <defs>
    <linearGradient id="mainGradient" x1="24" y1="8" x2="24" y2="40" gradientUnits="userSpaceOnUse">
      <stop offset="0%" stop-color="#4FACFE"/>
      <stop offset="100%" stop-color="#00F2FE"/>
    </linearGradient>
    
    <linearGradient id="glassGradient" x1="5" y1="14" x2="43" y2="40" gradientUnits="userSpaceOnUse">
      <stop offset="0%" stop-color="white" stop-opacity="0.4"/>
      <stop offset="100%" stop-color="white" stop-opacity="0.1"/>
    </linearGradient>

    <filter id="shadow" x="0" y="0" width="100%" height="100%" filterUnits="userSpaceOnUse">
      <feDropShadow dx="0" dy="2" stdDeviation="2" flood-color="#000000" flood-opacity="0.15"/>
    </filter>
  </defs>

  <g transform="translate(24 24) translate(-19 -16)">
    
    <path d="M0 4C0 1.79086 1.79086 0 4 0H13.5858C14.6467 0 15.6641 0.421427 16.4142 1.17157L19.8284 4.58579C20.5786 5.33593 21.596 5.75736 22.6569 5.75736H34C36.2091 5.75736 38 7.5482 38 9.75736V28C38 30.2091 36.2091 32 34 32H4C1.79086 32 0 30.2091 0 28V4Z" 
          fill="url(#mainGradient)" filter="url(#shadow)"/>

    <path d="M0 9C0 6.79086 1.79086 5 4 5H34C36.2091 5 38 6.79086 38 9V28C38 30.2091 36.2091 32 34 32H4C1.79086 32 0 30.2091 0 28V9Z" 
          fill="url(#glassGradient)" stroke="white" stroke-opacity="0.2" stroke-width="0.5"/>
    
    <path d="M4 5.5H34" stroke="white" stroke-opacity="0.5" stroke-linecap="round"/>
    
  </g>
</svg>
